Coordinates
version=1
nRows=16
nColumns=40
inDegrees=yes

Units are S.I. units (second, meters, Newtons, ...)
Angles are in degrees.

endheader
time	pelvis_tilt	pelvis_list	pelvis_rotation	pelvis_tx	pelvis_ty	pelvis_tz	hip_flexion_r	hip_adduction_r	hip_rotation_r	knee_angle_r	knee_angle_r_beta	ankle_angle_r	subtalar_angle_r	mtp_angle_r	hip_flexion_l	hip_adduction_l	hip_rotation_l	knee_angle_l	knee_angle_l_beta	ankle_angle_l	subtalar_angle_l	mtp_angle_l	lumbar_extension	lumbar_bending	lumbar_rotation	arm_flex_r	arm_add_r	arm_rot_r	elbow_flex_r	pro_sup_r	wrist_flex_r	wrist_dev_r	arm_flex_l	arm_add_l	arm_rot_l	elbow_flex_l	pro_sup_l	wrist_flex_l	wrist_dev_l
     53.78000000	     -7.05204383	     -7.13564068	      1.77715879	      0.94058722	      0.92516128	      0.50076467	     15.82442901	      4.88223748	    -17.14986994	     15.52340811	     15.52340811	      9.12419261	     -0.73701202	     -3.45796094	     39.44953452	    -11.39317052	      8.90455745	     73.36121784	     73.36121784	      1.48504388	    -18.31481977	      8.92243037	    -12.34115284	      5.11959592	      5.61566588	      1.81962826	    -12.53341735	     -7.36722810	     48.62025977	     45.31187068	      0.00000000	      0.00000000	      5.59941982	     -9.73132703	     -4.72566832	     71.13882495	     46.21423457	      0.00000000	      0.00000000
     53.79121429	     -7.02961903	     -7.08121804	      2.11092713	      0.93966900	      0.92547547	      0.50129553	     15.00407640	      4.93826192	    -17.33379921	     14.97282922	     14.97282922	      9.35163545	     -0.55161419	     -3.67390829	     40.88655799	    -11.30476935	      8.60419678	     72.17289517	     72.17289517	      2.15784790	    -18.61210230	     10.04138827	    -12.32401922	      4.98329714	      5.27226881	      4.17122369	    -12.66508356	     -7.27623068	     50.89664328	     45.25164260	      0.00000000	      0.00000000	      4.99514144	     -9.21930215	     -5.00825530	     66.01051163	     46.23122234	      0.00000000	      0.00000000
     53.80242857	     -6.98014794	     -7.08248936	      2.43181639	      0.93873435	      0.92562145	      0.50184516	     14.28088089	      5.05056794	    -17.39716450	     14.63776763	     14.63776763	      9.63104522	     -0.65871118	     -3.84697445	     42.20014789	    -11.27151698	      8.29763723	     70.85828978	     70.85828978	      2.93443687	    -18.77865072	     11.52326158	    -12.36899176	      4.93928780	      5.10405206	      6.28949106	    -12.90176823	     -7.23535312	     53.64533876	     45.18097553	      0.00000000	      0.00000000	      4.65251363	     -8.72711005	     -5.08166609	     60.68493353	     46.24617642	      0.00000000	      0.00000000
     53.81364286	     -6.92927773	     -7.09630053	      2.73240814	      0.93785444	      0.92572019	      0.50231252	     13.56266214	      5.17187271	    -17.46658783	     14.30690977	     14.30690977	      9.91629969	     -0.72358807	     -3.98346438	     43.32843684	    -11.21507623	      7.99118553	     69.29337882	     69.29337882	      3.69921859	    -18.89702521	     12.98521020	    -12.41097305	      4.91389975	      4.96224638	      8.51267997	    -13.08577904	     -7.24051906	     56.12588337	     45.12298496	      0.00000000	      0.00000000	      4.41235797	     -8.29839265	     -5.11083835	     55.37677762	     46.24715845	      0.00000000	      0.00000000
     53.82485714	     -6.86523423	     -7.09354376	      2.99812481	      0.93702328	      0.92574995	      0.50269893	     12.84501416	      5.27662431	    -17.49942225	     13.99930446	     13.99930446	     10.19948959	     -0.78438167	     -4.10739935	     44.27627668	    -11.14065417	      7.64767744	     67.48853718	     67.48853718	      4.37759492	    -18.97696211	     14.35703114	    -12.48388290	      4.88487907	      4.90141442	     10.67397511	    -13.29466404	     -7.29893457	     58.68874345	     45.06912202	      0.00000000	      0.00000000	      4.31104553	     -7.89142731	     -5.11346823	     50.12156098	     46.24941691	      0.00000000	      0.00000000
     53.83607143	     -6.82607642	     -7.11309134	      3.24039128	      0.93623333	      0.92565864	      0.50295928	     12.15534512	      5.39941741	    -17.53133836	     13.68588748	     13.68588748	     10.47906150	     -0.82008065	     -4.21171809	     45.07205253	    -11.05156478	      7.33957319	     65.39881113	     65.39881113	      4.89708143	    -19.00732141	     15.29401296	    -12.52002950	      4.89109415	      4.79943881	     12.93108203	    -13.49299786	     -7.22207780	     61.15898896	     45.01367162	      0.00000000	      0.00000000	      4.09014373	     -7.56186996	     -5.02766181	     45.26575967	     46.23482536	      0.00000000	      0.00000000
     53.84728571	     -6.79457733	     -7.15576829	      3.46353670	      0.93554839	      0.92544452	      0.50307470	     11.47438683	      5.53756923	    -17.55459390	     13.38747043	     13.38747043	     10.78660985	     -0.82270374	     -4.28289431	     45.69599065	    -10.93267185	      7.09827854	     63.02354398	     63.02354398	      5.19502925	    -18.99202819	     15.65528494	    -12.56579829	      4.92623706	      4.35631836	     15.47995158	    -13.38390935	     -7.20418029	     63.46650643	     44.95682330	      0.00000000	      0.00000000	      3.10551685	     -7.49445373	     -4.83127233	     42.15417394	     46.19458582	      0.00000000	      0.00000000
     53.85850000	     -6.74637607	     -7.14270868	      3.60992077	      0.93493006	      0.92526459	      0.50300940	     10.78408529	      5.59994640	    -17.57892499	     13.12270560	     13.12270560	     11.07209311	     -0.74133376	     -4.40116028	     46.05246199	    -10.75397334	      6.84058096	     60.30168149	     60.30168149	      5.38949648	    -18.92063155	     15.70758462	    -12.60600631	      4.92486650	      4.63432987	     17.43592950	    -14.00399883	     -6.54365258	     66.34141888	     44.87173409	      0.00000000	      0.00000000	      3.30158192	     -7.10011921	     -4.52816952	     37.00752171	     46.15383030	      0.00000000	      0.00000000
     53.86971429	     -6.73148216	     -7.14245763	      3.73369223	      0.93440377	      0.92495781	      0.50280698	     10.11851129	      5.66844391	    -17.56384155	     12.85432817	     12.85432817	     11.38670635	     -0.65609055	     -4.46283849	     46.25653129	    -10.50347693	      6.73359437	     57.30747303	     57.30747303	      5.57365342	    -18.75570504	     15.72672234	    -12.63039056	      4.93850304	      4.25267471	     20.07027623	    -13.76883903	     -6.57753950	     68.60636833	     44.81539371	      0.00000000	      0.00000000	      1.98841318	     -7.09744763	     -4.30223042	     35.12184971	     46.10461797	      0.00000000	      0.00000000
     53.88092857	     -6.76816796	     -7.19207614	      3.79920607	      0.93401939	      0.92450249	      0.50248437	      9.48322526	      5.77292223	    -17.63322167	     12.56081476	     12.56081476	     11.71274184	     -0.35592591	     -4.49117194	     46.27320092	    -10.31371363	      6.68525139	     53.94482603	     53.94482603	      5.17452704	    -18.50046072	     14.08281412	    -12.57288781	      5.03107524	      4.68176828	     21.88124848	    -14.51904102	     -5.88121254	     72.17322037	     44.73578576	      0.00000000	      0.00000000	      1.95867103	     -6.83204736	     -3.39283923	     30.90836366	     45.98494294	      0.00000000	      0.00000000
     53.89214286	     -6.74973657	     -7.18769999	      3.82925860	      0.93382525	      0.92414251	      0.50199583	      8.75990144	      5.82140121	    -17.63520706	     12.25463843	     12.25463843	     12.03700420	     -0.07676635	     -4.56966286	     46.04542931	    -10.03771454	      6.73949125	     50.42718356	     50.42718356	      5.37308679	    -17.91839583	     14.02408406	    -12.54997985	      5.04101712	      4.42108943	     24.48343004	    -14.28944953	     -5.73079199	     74.39127101	     44.67548790	      0.00000000	      0.00000000	      0.56972212	     -6.81496594	     -3.12016776	     29.59022028	     45.92433398	      0.00000000	      0.00000000
     53.90335714	     -6.79363005	     -7.24699844	      3.84184292	      0.93383283	      0.92354959	      0.50140546	      8.03617399	      5.92728515	    -17.75404322	     11.84871480	     11.84871480	     12.36693655	      0.45668276	     -4.63905257	     45.72121303	     -9.83760170	      6.89198515	     46.75091025	     46.75091025	      5.58497140	    -16.97279726	     13.45438386	    -12.46511611	      5.16038403	      4.20583582	     27.00785188	    -14.27858039	     -5.05771713	     77.07707930	     44.58557342	      0.00000000	      0.00000000	     -0.72260686	     -6.71185080	     -2.64084895	     28.07225586	     45.83261401	      0.00000000	      0.00000000
     53.91457143	     -6.83659086	     -7.33809543	      3.79823590	      0.93405837	      0.92290332	      0.50073144	      7.28344845	      6.06143319	    -17.90310580	     11.42415275	     11.42415275	     12.69652234	      1.12644689	     -4.68063704	     45.21548029	     -9.76219000	      6.98851206	     42.94951045	     42.94951045	      5.75649639	    -15.65449343	     12.70064519	    -12.34692745	      5.30270733	      4.23196009	     29.37404808	    -14.54771610	     -4.15679796	     79.84876066	     44.48892007	      0.00000000	      0.00000000	     -1.93528727	     -6.57916294	     -2.00875708	     26.77957436	     45.71318034	      0.00000000	      0.00000000
     53.92578571	     -6.85302428	     -7.40288632	      3.68506862	      0.93465349	      0.92222821	      0.49999128	      6.46428714	      6.17013405	    -17.97873801	     10.98972414	     10.98972414	     13.06174897	      1.79328478	     -4.71832409	     44.48011568	     -9.76235539	      6.93858899	     39.09112722	     39.09112722	      6.08406570	    -14.13482053	     12.26282003	    -12.22228101	      5.42952352	      4.36086432	     31.67639162	    -14.73189311	     -3.42473789	     82.38818043	     44.40449924	      0.00000000	      0.00000000	     -3.23834181	     -6.48905934	     -1.41763721	     25.88279428	     45.59242632	      0.00000000	      0.00000000
     53.93700000	     -6.84477032	     -7.45961618	      3.54528369	      0.93553401	      0.92148161	      0.49919156	      5.56376060	      6.27703278	    -18.03177196	     10.49972860	     10.49972860	     13.45733038	      2.51348915	     -4.75130972	     43.61736609	     -9.82034716	      6.76285586	     35.35036308	     35.35036308	      6.37567411	    -12.55767642	     12.18089384	    -12.07099832	      5.52727827	      4.50014571	     33.95745153	    -14.83838244	     -2.73664826	     84.83195613	     44.32370485	      0.00000000	      0.00000000	     -4.62685054	     -6.40823201	     -0.86319606	     25.26577468	     45.47088419	      0.00000000	      0.00000000
     53.94821429	     -6.86175748	     -7.64366833	      3.38613256	      0.93674693	      0.92046441	      0.49831798	      4.66169231	      6.48411096	    -18.36008651	     10.02268008	     10.02268008	     14.09572660	      3.79486301	     -4.15393259	     42.69115211	    -10.01265546	      6.58964993	     31.74185271	     31.74185271	      6.10326801	    -11.23495118	     10.79638717	    -11.87295838	      5.82224856	      5.10840500	     35.78111767	    -15.77476759	     -1.49610485	     88.44058061	     44.47515347	      0.00000000	      0.00000000	     -6.68304443	     -7.70640206	      9.07751272	     26.99681314	     43.90328591	      0.00000000	      0.00000000
